<?xml version="1.0" standalone="no"?>
<!DOCTYPE svg PUBLIC "-//W3C//DTD SVG 20010904//EN"
 "http://www.w3.org/TR/2001/REC-SVG-20010904/DTD/svg10.dtd">
<svg version="1.0" xmlns="http://www.w3.org/2000/svg"
 width="657.000000pt" height="657.000000pt" viewBox="0 0 657.000000 657.000000"
 preserveAspectRatio="xMidYMid meet">
<metadata>
Created by potrace 1.14, written by Peter Selinger 2001-2017
</metadata>
<g transform="translate(0.000000,657.000000) scale(0.100000,-0.100000)"
fill="#000000" stroke="none">
<path d="M2048 5951 c-376 -394 -628 -940 -693 -1500 -30 -258 -16 -604 36
-856 226 -1092 1118 -1933 2222 -2095 71 -11 194 -23 273 -26 l144 -7 0 226 0
227 -82 0 c-367 0 -823 142 -1148 357 -195 129 -329 246 -468 407 -500 579
-669 1338 -461 2066 94 328 273 644 502 886 l81 85 -160 160 -160 160 -86 -90z"/>
<path d="M3855 5873 c-347 -41 -568 -119 -831 -294 -135 -91 -348 -300 -447
-439 -278 -395 -378 -908 -271 -1390 168 -752 833 -1314 1597 -1347 l127 -6 0
221 0 220 -77 6 c-356 29 -627 149 -858 381 -239 239 -365 523 -381 855 -31
630 402 1187 1031 1326 114 25 334 30 456 10 250 -41 493 -158 664 -317 34
-33 67 -59 71 -59 5 0 79 70 164 155 l154 154 -29 32 c-17 17 -64 59 -105 94
-264 220 -585 356 -932 394 -91 10 -265 12 -333 4z"/>
<path d="M3850 4627 c-289 -99 -427 -394 -319 -682 83 -221 337 -360 574 -312
155 32 284 125 354 256 45 86 61 150 61 252 0 148 -45 256 -149 359 -109 108
-214 150 -371 150 -61 0 -103 -7 -150 -23z"/>
<path d="M1580 1755 l-154 -154 24 -27 c61 -66 256 -235 377 -326 595 -448
1293 -696 2036 -725 l167 -6 0 225 0 225 -167 6 c-371 12 -758 101 -1118 256
-319 138 -665 366 -906 598 -47 46 -90 83 -95 83 -5 0 -79 -70 -164 -155z"/>
</g>
</svg>
